<svg width="32" height="32" viewBox="0 0 32 32" fill="none" xmlns="http://www.w3.org/2000/svg">
<rect width="32" height="32" rx="5" fill="#171717"/>
<path d="M26 20.0008V11.9992C25.9996 11.6484 25.8967 11.3038 25.7017 11.0001C25.5067 10.6964 25.2264 10.4442 24.8889 10.2688L17.1111 6.268C16.7733 6.09243 16.3901 6 16 6C15.6099 6 15.2267 6.09243 14.8889 6.268L7.11111 10.2688C6.77363 10.4442 6.49331 10.6964 6.29829 11.0001C6.10327 11.3038 6.0004 11.6484 6 11.9992V20.0008C6.0004 20.3516 6.10327 20.6962 6.29829 20.9999C6.49331 21.3036 6.77363 21.5558 7.11111 21.7312L14.8889 25.732C15.2267 25.9076 15.6099 26 16 26C16.3901 26 16.7733 25.9076 17.1111 25.732L24.8889 21.7312C25.2264 21.5558 25.5067 21.3036 25.7017 20.9999C25.8967 20.6962 25.9996 20.3516 26 20.0008Z" stroke="white" stroke-linecap="round" stroke-linejoin="round"/>
</svg>
