<svg width="307" height="30" viewBox="0 -10 600 60" fill="none" xmlns="http://www.w3.org/2000/svg">
<path d="M45.005 15.025H48.695V30.64L46.985 31C46.415 31 45.935 30.82 45.545 30.46C45.185 30.07 45.005 29.59 45.005 29.02V15.025ZM46.985 31V27.85H61.61C61.76 27.97 61.88 28.165 61.97 28.435C62.06 28.705 62.105 29.005 62.105 29.335C62.105 29.845 61.97 30.25 61.7 30.55C61.43 30.85 61.07 31 60.62 31H46.985ZM48.695 17.725H45.005V3.73C45.155 3.67 45.38 3.61 45.68 3.55C46.01 3.46 46.355 3.415 46.715 3.415C47.375 3.415 47.87 3.55 48.2 3.82C48.53 4.06 48.695 4.48 48.695 5.08V17.725ZM85.7845 20.605C85.7845 22.825 85.3645 24.76 84.5245 26.41C83.6845 28.06 82.4995 29.335 80.9695 30.235C79.4395 31.135 77.6395 31.585 75.5695 31.585C73.4995 31.585 71.6845 31.135 70.1245 30.235C68.5945 29.335 67.4095 28.06 66.5695 26.41C65.7295 24.76 65.3095 22.825 65.3095 20.605C65.3095 18.355 65.7295 16.42 66.5695 14.8C67.4395 13.15 68.6395 11.875 70.1695 10.975C71.7295 10.075 73.5295 9.625 75.5695 9.625C77.6095 9.625 79.3945 10.075 80.9245 10.975C82.4545 11.875 83.6395 13.15 84.4795 14.8C85.3495 16.42 85.7845 18.355 85.7845 20.605ZM75.5695 12.595C73.5595 12.595 71.9545 13.315 70.7545 14.755C69.5845 16.165 68.9995 18.115 68.9995 20.605C68.9995 23.125 69.5695 25.09 70.7095 26.5C71.8795 27.91 73.4995 28.615 75.5695 28.615C77.6095 28.615 79.1995 27.91 80.3395 26.5C81.5095 25.06 82.0945 23.095 82.0945 20.605C82.0945 18.115 81.5095 16.165 80.3395 14.755C79.1995 13.315 77.6095 12.595 75.5695 12.595ZM99.9925 30.37C98.2525 30.37 96.6475 30.04 95.1775 29.38C93.7075 28.69 92.5225 27.58 91.6225 26.05C90.7225 24.52 90.2725 22.495 90.2725 19.975C90.2725 17.695 90.7075 15.79 91.5775 14.26C92.4775 12.73 93.7075 11.575 95.2675 10.795C96.8275 10.015 98.6125 9.625 100.623 9.625C102.003 9.625 103.263 9.805 104.403 10.165C105.573 10.495 106.548 10.915 107.328 11.425C107.778 11.725 108.138 12.07 108.408 12.46C108.708 12.82 108.858 13.27 108.858 13.81V27.715H105.258V13.855C104.748 13.525 104.103 13.24 103.323 13C102.573 12.73 101.673 12.595 100.623 12.595C98.6125 12.595 96.9925 13.21 95.7625 14.44C94.5325 15.67 93.9175 17.5 93.9175 19.93C93.9175 22.63 94.5325 24.55 95.7625 25.69C97.0225 26.83 98.5675 27.4 100.398 27.4C101.718 27.4 102.783 27.175 103.593 26.725C104.403 26.275 105.048 25.78 105.528 25.24L105.708 28.435C105.258 28.915 104.538 29.365 103.548 29.785C102.588 30.175 101.403 30.37 99.9925 30.37ZM105.258 31.675V26.95H108.858V31.9C108.858 33.88 108.423 35.47 107.553 36.67C106.713 37.87 105.543 38.74 104.043 39.28C102.573 39.82 100.908 40.09 99.0475 40.09C97.5475 40.09 96.2575 39.925 95.1775 39.595C94.0975 39.265 93.3625 38.995 92.9725 38.785C92.0725 38.275 91.6225 37.63 91.6225 36.85C91.6225 36.43 91.7125 36.07 91.8925 35.77C92.1025 35.5 92.3575 35.29 92.6575 35.14C93.2875 35.62 94.1725 36.055 95.3125 36.445C96.4825 36.865 97.7275 37.075 99.0475 37.075C101.058 37.075 102.588 36.64 103.638 35.77C104.718 34.9 105.258 33.535 105.258 31.675ZM133.567 22.045H129.967V17.905C129.967 16.105 129.457 14.77 128.437 13.9C127.447 13.03 126.157 12.595 124.567 12.595C123.397 12.595 122.302 12.82 121.282 13.27C120.292 13.72 119.452 14.26 118.762 14.89L118.087 11.965C118.807 11.455 119.752 10.945 120.922 10.435C122.122 9.895 123.502 9.625 125.062 9.625C127.552 9.625 129.592 10.3 131.182 11.65C132.772 13 133.567 15.055 133.567 17.815V22.045ZM115.612 19.12H119.212V30.91C119.062 30.97 118.837 31.03 118.537 31.09C118.237 31.18 117.907 31.225 117.547 31.225C116.917 31.225 116.437 31.105 116.107 30.865C115.777 30.595 115.612 30.175 115.612 29.605V19.12ZM129.967 19.165L133.567 19.21V30.91C133.417 30.97 133.177 31.03 132.847 31.09C132.547 31.18 132.232 31.225 131.902 31.225C131.242 31.225 130.747 31.105 130.417 30.865C130.117 30.595 129.967 30.175 129.967 29.605V19.165ZM119.212 20.875H115.612V1.84C115.762 1.78 115.987 1.72 116.287 1.66C116.617 1.57 116.962 1.525 117.322 1.525C117.952 1.525 118.417 1.66 118.717 1.93C119.047 2.17 119.212 2.575 119.212 3.145V20.875ZM140.308 23.395V19.3H143.908V23.215C143.908 25.135 144.418 26.515 145.438 27.355C146.458 28.195 147.868 28.615 149.668 28.615C150.868 28.615 151.888 28.495 152.728 28.255C153.568 27.985 154.228 27.715 154.708 27.445V19.3H158.308V27.31C158.308 27.94 158.218 28.45 158.038 28.84C157.888 29.2 157.498 29.56 156.868 29.92C156.208 30.31 155.263 30.685 154.033 31.045C152.803 31.405 151.333 31.585 149.623 31.585C147.643 31.585 145.948 31.3 144.538 30.73C143.158 30.13 142.108 29.23 141.388 28.03C140.668 26.8 140.308 25.255 140.308 23.395ZM158.308 21.64H154.708V10.3C154.858 10.24 155.083 10.18 155.383 10.12C155.713 10.03 156.043 9.985 156.373 9.985C157.033 9.985 157.513 10.12 157.813 10.39C158.143 10.63 158.308 11.05 158.308 11.65V21.64ZM143.908 21.64H140.308V10.3C140.458 10.24 140.683 10.18 140.983 10.12C141.313 10.03 141.658 9.985 142.018 9.985C142.648 9.985 143.113 10.12 143.413 10.39C143.743 10.63 143.908 11.05 143.908 11.65V21.64ZM174.319 9.625C176.179 9.625 177.844 10.03 179.314 10.84C180.814 11.62 181.984 12.82 182.824 14.44C183.694 16.06 184.129 18.115 184.129 20.605C184.129 23.125 183.679 25.195 182.779 26.815C181.909 28.435 180.694 29.635 179.134 30.415C177.574 31.195 175.759 31.585 173.689 31.585C172.219 31.585 170.884 31.405 169.684 31.045C168.514 30.685 167.554 30.295 166.804 29.875C166.174 29.455 165.739 29.065 165.499 28.705C165.259 28.345 165.139 27.85 165.139 27.22V12.235H168.739V27.22C169.189 27.55 169.849 27.865 170.719 28.165C171.589 28.465 172.579 28.615 173.689 28.615C175.729 28.615 177.364 27.97 178.594 26.68C179.854 25.39 180.484 23.365 180.484 20.605C180.484 17.815 179.854 15.79 178.594 14.53C177.334 13.24 175.729 12.595 173.779 12.595C172.579 12.595 171.514 12.835 170.584 13.315C169.654 13.765 168.889 14.29 168.289 14.89L167.614 11.965C168.274 11.455 169.159 10.945 170.269 10.435C171.379 9.895 172.729 9.625 174.319 9.625ZM168.739 12.955H165.139V1.84C165.289 1.78 165.514 1.72 165.814 1.66C166.144 1.57 166.489 1.525 166.849 1.525C167.479 1.525 167.944 1.66 168.244 1.93C168.574 2.17 168.739 2.575 168.739 3.145V12.955Z" fill="white"/>
<path d="M32 22.3012V10.6988C31.9994 10.1902 31.8451 9.69058 31.5526 9.2502C31.26 8.80982 30.8396 8.44412 30.3333 8.1898L18.6667 2.38861C18.1599 2.13403 17.5851 2 17 2C16.4149 2 15.8401 2.13403 15.3333 2.38861L3.66667 8.1898C3.16044 8.44412 2.73997 8.80982 2.44744 9.2502C2.1549 9.69058 2.0006 10.1902 2 10.6988V22.3012C2.0006 22.8098 2.1549 23.3094 2.44744 23.7498C2.73997 24.1902 3.16044 24.5559 3.66667 24.8102L15.3333 30.6114C15.8401 30.866 16.4149 31 17 31C17.5851 31 18.1599 30.866 18.6667 30.6114L30.3333 24.8102C30.8396 24.5559 31.26 24.1902 31.5526 23.7498C31.8451 23.3094 31.9994 22.8098 32 22.3012Z" stroke="#CDCDCD" stroke-width="4" stroke-linecap="round" stroke-linejoin="round"/>
<path d="M212.012 32L209.808 25.35H199.358L197.192 32H194.836L203.424 6.16H205.894L214.52 32H212.012ZM201.714 18.206L200.08 23.146H209.048L207.414 18.206L204.564 9.39L201.714 18.206ZM232.856 32V29.34C231.437 30.5307 230.183 31.3413 229.094 31.772C228.03 32.1773 227.017 32.38 226.054 32.38C224.433 32.38 223.191 31.8607 222.33 30.822C221.469 29.758 221.038 28.2633 221.038 26.338V13.494H223.318V25.92C223.318 27.3893 223.571 28.4787 224.078 29.188C224.585 29.872 225.37 30.214 226.434 30.214C227.194 30.214 228.055 30.024 229.018 29.644C230.006 29.2387 231.247 28.428 232.742 27.212V13.494H235.022V32H232.856ZM256.064 32V29.378C254.924 30.4167 253.834 31.1767 252.796 31.658C251.757 32.1393 250.693 32.38 249.604 32.38C247.678 32.38 246.196 31.6327 245.158 30.138C244.119 28.6433 243.6 26.5533 243.6 23.868V21.588C243.6 19.004 244.246 16.952 245.538 15.432C246.83 13.8867 248.717 13.114 251.2 13.114C252.01 13.114 252.808 13.2027 253.594 13.38C254.379 13.532 255.164 13.76 255.95 14.064V3.88H258.23V32H256.064ZM245.994 23.868C245.994 26.0467 246.323 27.6553 246.982 28.694C247.64 29.7073 248.666 30.214 250.06 30.214C250.87 30.214 251.706 30.0113 252.568 29.606C253.454 29.2007 254.582 28.3773 255.95 27.136V16.268C254.379 15.5587 252.834 15.204 251.314 15.204C249.414 15.204 248.046 15.774 247.21 16.914C246.399 18.054 245.994 19.612 245.994 21.588V23.868ZM270.229 8.212H267.493V5.438H270.229V8.212ZM270.001 32H267.721V13.494H270.001V32ZM288.963 31.278C287.57 32.0127 286.164 32.38 284.745 32.38C283.479 32.38 282.491 32.1267 281.781 31.62C281.072 31.088 280.578 30.3913 280.299 29.53C280.021 28.6687 279.881 27.7567 279.881 26.794V15.508H276.499V13.494H279.881V8.098H282.161V13.494H288.431V15.508H282.161V26.604C282.161 28.0227 282.377 29.0107 282.807 29.568C283.263 30.1 283.998 30.366 285.011 30.366C285.974 30.366 287.025 30.062 288.165 29.454L288.963 31.278ZM299.837 30.29C301.382 30.29 302.459 30.0367 303.067 29.53C303.7 28.998 304.017 28.238 304.017 27.25C304.017 26.414 303.763 25.73 303.257 25.198C302.775 24.666 301.863 24.2353 300.521 23.906L298.469 23.412C297.025 23.0573 295.923 22.4367 295.163 21.55C294.428 20.638 294.061 19.536 294.061 18.244C294.061 17.3573 294.251 16.534 294.631 15.774C295.036 14.9887 295.669 14.3553 296.531 13.874C297.417 13.3673 298.583 13.114 300.027 13.114C300.964 13.114 301.914 13.228 302.877 13.456C303.839 13.6587 304.789 13.988 305.727 14.444L304.967 16.382C303.193 15.5967 301.547 15.204 300.027 15.204C298.836 15.204 297.911 15.4447 297.253 15.926C296.619 16.4073 296.303 17.1293 296.303 18.092C296.303 18.8267 296.531 19.4853 296.987 20.068C297.468 20.6507 298.342 21.094 299.609 21.398L301.699 21.892C304.739 22.6013 306.259 24.3493 306.259 27.136C306.259 28.0987 306.069 28.9853 305.689 29.796C305.309 30.5813 304.663 31.2147 303.751 31.696C302.839 32.152 301.597 32.38 300.027 32.38C298.963 32.38 297.911 32.266 296.873 32.038C295.834 31.81 294.77 31.4553 293.681 30.974L294.289 29.036C295.302 29.4413 296.227 29.758 297.063 29.986C297.924 30.1887 298.849 30.29 299.837 30.29Z" fill="#71717A"/>
</svg>
