<svg width="297" height="53" viewBox="0 0 297 53" fill="none" xmlns="http://www.w3.org/2000/svg">
<path d="M70.055 42H55.295V10.5H60.065V37.32H70.055V42ZM84.5425 42.585C82.3825 42.585 80.4775 42.12 78.8275 41.19C77.2075 40.23 75.9325 38.91 75.0025 37.23C74.1025 35.52 73.6525 33.54 73.6525 31.29C73.6525 28.65 74.1175 26.445 75.0475 24.675C75.9775 22.875 77.2525 21.525 78.8725 20.625C80.5225 19.725 82.4125 19.275 84.5425 19.275C86.6725 19.275 88.5475 19.725 90.1675 20.625C91.8175 21.525 93.1075 22.875 94.0375 24.675C94.9675 26.445 95.4325 28.65 95.4325 31.29C95.4325 33.54 94.9675 35.52 94.0375 37.23C93.1075 38.91 91.8175 40.23 90.1675 41.19C88.5475 42.12 86.6725 42.585 84.5425 42.585ZM84.5425 37.995C85.8925 37.995 87.0325 37.68 87.9625 37.05C88.8925 36.42 89.5975 35.595 90.0775 34.575C90.5875 33.555 90.8425 32.46 90.8425 31.29C90.8425 29.19 90.3025 27.435 89.2225 26.025C88.1425 24.585 86.5825 23.865 84.5425 23.865C82.5325 23.865 80.9725 24.57 79.8625 25.98C78.7825 27.39 78.2425 29.16 78.2425 31.29C78.2425 32.49 78.4825 33.6 78.9625 34.62C79.4725 35.64 80.1925 36.465 81.1225 37.095C82.0525 37.695 83.1925 37.995 84.5425 37.995ZM108.839 51.18C107.849 51.18 106.829 51.015 105.779 50.685C104.759 50.385 103.799 49.965 102.899 49.425C102.029 48.915 101.339 48.345 100.829 47.715L103.889 44.475C104.759 45.255 105.749 45.825 106.859 46.185C107.999 46.545 109.064 46.635 110.054 46.455C111.044 46.275 111.794 45.75 112.304 44.88C112.634 44.34 112.859 43.74 112.979 43.08C113.099 42.42 113.159 41.67 113.159 40.83C111.359 41.85 109.574 42.285 107.804 42.135C106.034 42.015 104.414 41.46 102.944 40.47C101.504 39.45 100.349 38.13 99.479 36.51C98.639 34.86 98.204 33.03 98.174 31.02C98.144 28.68 98.534 26.655 99.344 24.945C100.154 23.235 101.264 21.9 102.674 20.94C104.114 19.98 105.734 19.455 107.534 19.365C109.364 19.245 111.284 19.635 113.294 20.535V19.5H118.064V41.01C118.064 44.1 117.269 46.56 115.679 48.39C114.119 50.25 111.839 51.18 108.839 51.18ZM102.899 31.02C102.899 32.4 103.199 33.57 103.799 34.53C104.429 35.46 105.239 36.165 106.229 36.645C107.249 37.095 108.359 37.305 109.559 37.275C110.789 37.245 112.034 36.945 113.294 36.375V25.17C111.344 24.15 109.574 23.715 107.984 23.865C106.424 23.985 105.179 24.66 104.249 25.89C103.349 27.09 102.899 28.8 102.899 31.02ZM142.059 42H137.289V28.905C137.289 27.195 136.824 25.95 135.894 25.17C134.994 24.39 133.779 24 132.249 24C131.349 24 130.539 24.21 129.819 24.63C129.099 25.02 128.514 25.515 128.064 26.115C127.644 26.715 127.434 27.33 127.434 27.96V42H122.664V10.5H127.434V21.03C128.184 20.34 129.099 19.875 130.179 19.635C131.259 19.365 132.339 19.275 133.419 19.365C136.209 19.635 138.339 20.625 139.809 22.335C141.309 24.015 142.059 26.205 142.059 28.905V42ZM165.749 42H160.934V40.065C160.514 40.845 159.779 41.43 158.729 41.82C157.679 42.21 156.509 42.405 155.219 42.405C153.959 42.435 152.714 42.27 151.484 41.91C150.284 41.55 149.279 41.025 148.469 40.335C146.609 38.655 145.679 36.195 145.679 32.955V19.5H150.494V32.955C150.494 34.665 150.989 35.91 151.979 36.69C152.999 37.47 154.274 37.86 155.804 37.86C156.584 37.86 157.364 37.695 158.144 37.365C158.954 37.005 159.614 36.465 160.124 35.745C160.664 35.025 160.934 34.095 160.934 32.955V19.5H165.749V42ZM190.01 30.39C190.01 32.16 189.77 33.825 189.29 35.385C188.81 36.915 188.075 38.235 187.085 39.345C186.125 40.455 184.895 41.25 183.395 41.73C182.495 42.03 181.49 42.15 180.38 42.09C179.3 42.03 178.265 41.835 177.275 41.505C176.315 41.145 175.565 40.68 175.025 40.11V42H170.255V10.5H175.025V20.31C175.775 19.86 176.615 19.56 177.545 19.41C178.505 19.26 179.345 19.185 180.065 19.185C182.195 19.185 183.995 19.695 185.465 20.715C186.965 21.705 188.09 23.04 188.84 24.72C189.62 26.4 190.01 28.29 190.01 30.39ZM185.15 30.39C185.15 28.53 184.67 27.075 183.71 26.025C182.78 24.945 181.535 24.3 179.975 24.09C178.445 23.88 176.795 24.135 175.025 24.855V36.105C176.765 37.185 178.4 37.665 179.93 37.545C181.49 37.395 182.75 36.705 183.71 35.475C184.67 34.245 185.15 32.55 185.15 30.39Z" fill="#171717"/>
<path d="M42 35.0016V18.9984C41.9992 18.2968 41.7935 17.6077 41.4034 17.0003C41.0134 16.3929 40.4528 15.8884 39.7778 15.5376L24.2222 7.53601C23.5466 7.18486 22.7802 7 22 7C21.2198 7 20.4534 7.18486 19.7778 7.53601L4.22222 15.5376C3.54725 15.8884 2.98662 16.3929 2.59658 17.0003C2.20654 17.6077 2.0008 18.2968 2 18.9984V35.0016C2.0008 35.7032 2.20654 36.3923 2.59658 36.9997C2.98662 37.6071 3.54725 38.1116 4.22222 38.4623L19.7778 46.464C20.4534 46.8151 21.2198 47 22 47C22.7802 47 23.5466 46.8151 24.2222 46.464L39.7778 38.4623C40.4528 38.1116 41.0134 37.6071 41.4034 36.9997C41.7935 36.3923 41.9992 35.7032 42 35.0016Z" stroke="#171717" stroke-width="4" stroke-linecap="round" stroke-linejoin="round"/>
<path d="M215.96 42L213.64 35H202.64L200.36 42H197.88L206.92 14.8H209.52L218.6 42H215.96ZM205.12 27.48L203.4 32.68H212.84L211.12 27.48L208.12 18.2L205.12 27.48ZM233.901 42V39.2C232.408 40.4533 231.088 41.3067 229.941 41.76C228.821 42.1867 227.754 42.4 226.741 42.4C225.034 42.4 223.728 41.8533 222.821 40.76C221.914 39.64 221.461 38.0667 221.461 36.04V22.52H223.861V35.6C223.861 37.1467 224.128 38.2933 224.661 39.04C225.194 39.76 226.021 40.12 227.141 40.12C227.941 40.12 228.848 39.92 229.861 39.52C230.901 39.0933 232.208 38.24 233.781 36.96V22.52H236.181V42H233.901ZM254.33 42V39.24C253.13 40.3333 251.984 41.1333 250.89 41.64C249.797 42.1467 248.677 42.4 247.53 42.4C245.504 42.4 243.944 41.6133 242.85 40.04C241.757 38.4667 241.21 36.2667 241.21 33.44V31.04C241.21 28.32 241.89 26.16 243.25 24.56C244.61 22.9333 246.597 22.12 249.21 22.12C250.064 22.12 250.904 22.2133 251.73 22.4C252.557 22.56 253.384 22.8 254.21 23.12V12.4H256.61V42H254.33ZM243.73 33.44C243.73 35.7333 244.077 37.4267 244.77 38.52C245.464 39.5867 246.544 40.12 248.01 40.12C248.864 40.12 249.744 39.9067 250.65 39.48C251.584 39.0533 252.77 38.1867 254.21 36.88V25.44C252.557 24.6933 250.93 24.32 249.33 24.32C247.33 24.32 245.89 24.92 245.01 26.12C244.157 27.32 243.73 28.96 243.73 31.04V33.44ZM265.242 16.96H262.362V14.04H265.242V16.96ZM265.002 42H262.602V22.52H265.002V42ZM280.962 41.24C279.495 42.0133 278.015 42.4 276.522 42.4C275.188 42.4 274.148 42.1333 273.402 41.6C272.655 41.04 272.135 40.3067 271.842 39.4C271.548 38.4933 271.402 37.5333 271.402 36.52V24.64H267.842V22.52H271.402V16.84H273.802V22.52H280.402V24.64H273.802V36.32C273.802 37.8133 274.028 38.8533 274.482 39.44C274.962 40 275.735 40.28 276.802 40.28C277.815 40.28 278.922 39.96 280.122 39.32L280.962 41.24ZM288.407 40.2C290.034 40.2 291.167 39.9333 291.807 39.4C292.474 38.84 292.807 38.04 292.807 37C292.807 36.12 292.541 35.4 292.007 34.84C291.501 34.28 290.541 33.8267 289.127 33.48L286.967 32.96C285.447 32.5867 284.287 31.9333 283.487 31C282.714 30.04 282.327 28.88 282.327 27.52C282.327 26.5867 282.527 25.72 282.927 24.92C283.354 24.0933 284.021 23.4267 284.927 22.92C285.861 22.3867 287.087 22.12 288.607 22.12C289.594 22.12 290.594 22.24 291.607 22.48C292.621 22.6933 293.621 23.04 294.607 23.52L293.807 25.56C291.941 24.7333 290.207 24.32 288.607 24.32C287.354 24.32 286.381 24.5733 285.687 25.08C285.021 25.5867 284.687 26.3467 284.687 27.36C284.687 28.1333 284.927 28.8267 285.407 29.44C285.914 30.0533 286.834 30.52 288.167 30.84L290.367 31.36C293.567 32.1067 295.167 33.9467 295.167 36.88C295.167 37.8933 294.967 38.8267 294.567 39.68C294.167 40.5067 293.487 41.1733 292.527 41.68C291.567 42.16 290.261 42.4 288.607 42.4C287.487 42.4 286.381 42.28 285.287 42.04C284.194 41.8 283.074 41.4267 281.927 40.92L282.567 38.88C283.634 39.3067 284.607 39.64 285.487 39.88C286.394 40.0933 287.367 40.2 288.407 40.2Z" fill="#909090"/>
</svg>
