<svg width="307" height="33" viewBox="0 0 307 33" fill="none" xmlns="http://www.w3.org/2000/svg">
<path d="M32 22.3012V10.6988C31.9994 10.1902 31.8451 9.69058 31.5526 9.2502C31.26 8.80982 30.8396 8.44412 30.3333 8.1898L18.6667 2.38861C18.1599 2.13403 17.5851 2 17 2C16.4149 2 15.8401 2.13403 15.3333 2.38861L3.66667 8.1898C3.16044 8.44412 2.73997 8.80982 2.44744 9.2502C2.1549 9.69058 2.0006 10.1902 2 10.6988V22.3012C2.0006 22.8098 2.1549 23.3094 2.44744 23.7498C2.73997 24.1902 3.16044 24.5559 3.66667 24.8102L15.3333 30.6114C15.8401 30.866 16.4149 31 17 31C17.5851 31 18.1599 30.866 18.6667 30.6114L30.3333 24.8102C30.8396 24.5559 31.26 24.1902 31.5526 23.7498C31.8451 23.3094 31.9994 22.8098 32 22.3012Z" stroke="#CDCDCD" stroke-width="4" stroke-linecap="round" stroke-linejoin="round"/>
<path d="M212.012 32L209.808 25.35H199.358L197.192 32H194.836L203.424 6.16H205.894L214.52 32H212.012ZM201.714 18.206L200.08 23.146H209.048L207.414 18.206L204.564 9.39L201.714 18.206ZM232.856 32V29.34C231.437 30.5307 230.183 31.3413 229.094 31.772C228.03 32.1773 227.017 32.38 226.054 32.38C224.433 32.38 223.191 31.8607 222.33 30.822C221.469 29.758 221.038 28.2633 221.038 26.338V13.494H223.318V25.92C223.318 27.3893 223.571 28.4787 224.078 29.188C224.585 29.872 225.37 30.214 226.434 30.214C227.194 30.214 228.055 30.024 229.018 29.644C230.006 29.2387 231.247 28.428 232.742 27.212V13.494H235.022V32H232.856ZM256.064 32V29.378C254.924 30.4167 253.834 31.1767 252.796 31.658C251.757 32.1393 250.693 32.38 249.604 32.38C247.678 32.38 246.196 31.6327 245.158 30.138C244.119 28.6433 243.6 26.5533 243.6 23.868V21.588C243.6 19.004 244.246 16.952 245.538 15.432C246.83 13.8867 248.717 13.114 251.2 13.114C252.01 13.114 252.808 13.2027 253.594 13.38C254.379 13.532 255.164 13.76 255.95 14.064V3.88H258.23V32H256.064ZM245.994 23.868C245.994 26.0467 246.323 27.6553 246.982 28.694C247.64 29.7073 248.666 30.214 250.06 30.214C250.87 30.214 251.706 30.0113 252.568 29.606C253.454 29.2007 254.582 28.3773 255.95 27.136V16.268C254.379 15.5587 252.834 15.204 251.314 15.204C249.414 15.204 248.046 15.774 247.21 16.914C246.399 18.054 245.994 19.612 245.994 21.588V23.868ZM270.229 8.212H267.493V5.438H270.229V8.212ZM270.001 32H267.721V13.494H270.001V32ZM288.963 31.278C287.57 32.0127 286.164 32.38 284.745 32.38C283.479 32.38 282.491 32.1267 281.781 31.62C281.072 31.088 280.578 30.3913 280.299 29.53C280.021 28.6687 279.881 27.7567 279.881 26.794V15.508H276.499V13.494H279.881V8.098H282.161V13.494H288.431V15.508H282.161V26.604C282.161 28.0227 282.377 29.0107 282.807 29.568C283.263 30.1 283.998 30.366 285.011 30.366C285.974 30.366 287.025 30.062 288.165 29.454L288.963 31.278ZM299.837 30.29C301.382 30.29 302.459 30.0367 303.067 29.53C303.7 28.998 304.017 28.238 304.017 27.25C304.017 26.414 303.763 25.73 303.257 25.198C302.775 24.666 301.863 24.2353 300.521 23.906L298.469 23.412C297.025 23.0573 295.923 22.4367 295.163 21.55C294.428 20.638 294.061 19.536 294.061 18.244C294.061 17.3573 294.251 16.534 294.631 15.774C295.036 14.9887 295.669 14.3553 296.531 13.874C297.417 13.3673 298.583 13.114 300.027 13.114C300.964 13.114 301.914 13.228 302.877 13.456C303.839 13.6587 304.789 13.988 305.727 14.444L304.967 16.382C303.193 15.5967 301.547 15.204 300.027 15.204C298.836 15.204 297.911 15.4447 297.253 15.926C296.619 16.4073 296.303 17.1293 296.303 18.092C296.303 18.8267 296.531 19.4853 296.987 20.068C297.468 20.6507 298.342 21.094 299.609 21.398L301.699 21.892C304.739 22.6013 306.259 24.3493 306.259 27.136C306.259 28.0987 306.069 28.9853 305.689 29.796C305.309 30.5813 304.663 31.2147 303.751 31.696C302.839 32.152 301.597 32.38 300.027 32.38C298.963 32.38 297.911 32.266 296.873 32.038C295.834 31.81 294.77 31.4553 293.681 30.974L294.289 29.036C295.302 29.4413 296.227 29.758 297.063 29.986C297.924 30.1887 298.849 30.29 299.837 30.29Z" fill="#71717A"/>
</svg>
