<svg width="185" height="41" viewBox="0 0 185 41" fill="none" xmlns="http://www.w3.org/2000/svg">
<mask id="path-1-outside-1_0_1" maskUnits="userSpaceOnUse" x="44" y="0" width="142" height="42" fill="black">
<rect fill="white" x="44" width="142" height="42"/>
<path d="M45.005 15.025H48.695V30.64L46.985 31C46.415 31 45.935 30.82 45.545 30.46C45.185 30.07 45.005 29.59 45.005 29.02V15.025ZM46.985 31V27.85H61.61C61.76 27.97 61.88 28.165 61.97 28.435C62.06 28.705 62.105 29.005 62.105 29.335C62.105 29.845 61.97 30.25 61.7 30.55C61.43 30.85 61.07 31 60.62 31H46.985ZM48.695 17.725H45.005V3.73C45.155 3.67 45.38 3.61 45.68 3.55C46.01 3.46 46.355 3.415 46.715 3.415C47.375 3.415 47.87 3.55 48.2 3.82C48.53 4.06 48.695 4.48 48.695 5.08V17.725ZM85.7845 20.605C85.7845 22.825 85.3645 24.76 84.5245 26.41C83.6845 28.06 82.4995 29.335 80.9695 30.235C79.4395 31.135 77.6395 31.585 75.5695 31.585C73.4995 31.585 71.6845 31.135 70.1245 30.235C68.5945 29.335 67.4095 28.06 66.5695 26.41C65.7295 24.76 65.3095 22.825 65.3095 20.605C65.3095 18.355 65.7295 16.42 66.5695 14.8C67.4395 13.15 68.6395 11.875 70.1695 10.975C71.7295 10.075 73.5295 9.625 75.5695 9.625C77.6095 9.625 79.3945 10.075 80.9245 10.975C82.4545 11.875 83.6395 13.15 84.4795 14.8C85.3495 16.42 85.7845 18.355 85.7845 20.605ZM75.5695 12.595C73.5595 12.595 71.9545 13.315 70.7545 14.755C69.5845 16.165 68.9995 18.115 68.9995 20.605C68.9995 23.125 69.5695 25.09 70.7095 26.5C71.8795 27.91 73.4995 28.615 75.5695 28.615C77.6095 28.615 79.1995 27.91 80.3395 26.5C81.5095 25.06 82.0945 23.095 82.0945 20.605C82.0945 18.115 81.5095 16.165 80.3395 14.755C79.1995 13.315 77.6095 12.595 75.5695 12.595ZM99.9925 30.37C98.2525 30.37 96.6475 30.04 95.1775 29.38C93.7075 28.69 92.5225 27.58 91.6225 26.05C90.7225 24.52 90.2725 22.495 90.2725 19.975C90.2725 17.695 90.7075 15.79 91.5775 14.26C92.4775 12.73 93.7075 11.575 95.2675 10.795C96.8275 10.015 98.6125 9.625 100.623 9.625C102.003 9.625 103.263 9.805 104.403 10.165C105.573 10.495 106.548 10.915 107.328 11.425C107.778 11.725 108.138 12.07 108.408 12.46C108.708 12.82 108.858 13.27 108.858 13.81V27.715H105.258V13.855C104.748 13.525 104.103 13.24 103.323 13C102.573 12.73 101.673 12.595 100.623 12.595C98.6125 12.595 96.9925 13.21 95.7625 14.44C94.5325 15.67 93.9175 17.5 93.9175 19.93C93.9175 22.63 94.5325 24.55 95.7625 25.69C97.0225 26.83 98.5675 27.4 100.398 27.4C101.718 27.4 102.783 27.175 103.593 26.725C104.403 26.275 105.048 25.78 105.528 25.24L105.708 28.435C105.258 28.915 104.538 29.365 103.548 29.785C102.588 30.175 101.403 30.37 99.9925 30.37ZM105.258 31.675V26.95H108.858V31.9C108.858 33.88 108.423 35.47 107.553 36.67C106.713 37.87 105.543 38.74 104.043 39.28C102.573 39.82 100.908 40.09 99.0475 40.09C97.5475 40.09 96.2575 39.925 95.1775 39.595C94.0975 39.265 93.3625 38.995 92.9725 38.785C92.0725 38.275 91.6225 37.63 91.6225 36.85C91.6225 36.43 91.7125 36.07 91.8925 35.77C92.1025 35.5 92.3575 35.29 92.6575 35.14C93.2875 35.62 94.1725 36.055 95.3125 36.445C96.4825 36.865 97.7275 37.075 99.0475 37.075C101.058 37.075 102.588 36.64 103.638 35.77C104.718 34.9 105.258 33.535 105.258 31.675ZM133.567 22.045H129.967V17.905C129.967 16.105 129.457 14.77 128.437 13.9C127.447 13.03 126.157 12.595 124.567 12.595C123.397 12.595 122.302 12.82 121.282 13.27C120.292 13.72 119.452 14.26 118.762 14.89L118.087 11.965C118.807 11.455 119.752 10.945 120.922 10.435C122.122 9.895 123.502 9.625 125.062 9.625C127.552 9.625 129.592 10.3 131.182 11.65C132.772 13 133.567 15.055 133.567 17.815V22.045ZM115.612 19.12H119.212V30.91C119.062 30.97 118.837 31.03 118.537 31.09C118.237 31.18 117.907 31.225 117.547 31.225C116.917 31.225 116.437 31.105 116.107 30.865C115.777 30.595 115.612 30.175 115.612 29.605V19.12ZM129.967 19.165L133.567 19.21V30.91C133.417 30.97 133.177 31.03 132.847 31.09C132.547 31.18 132.232 31.225 131.902 31.225C131.242 31.225 130.747 31.105 130.417 30.865C130.117 30.595 129.967 30.175 129.967 29.605V19.165ZM119.212 20.875H115.612V1.84C115.762 1.78 115.987 1.72 116.287 1.66C116.617 1.57 116.962 1.525 117.322 1.525C117.952 1.525 118.417 1.66 118.717 1.93C119.047 2.17 119.212 2.575 119.212 3.145V20.875ZM140.308 23.395V19.3H143.908V23.215C143.908 25.135 144.418 26.515 145.438 27.355C146.458 28.195 147.868 28.615 149.668 28.615C150.868 28.615 151.888 28.495 152.728 28.255C153.568 27.985 154.228 27.715 154.708 27.445V19.3H158.308V27.31C158.308 27.94 158.218 28.45 158.038 28.84C157.888 29.2 157.498 29.56 156.868 29.92C156.208 30.31 155.263 30.685 154.033 31.045C152.803 31.405 151.333 31.585 149.623 31.585C147.643 31.585 145.948 31.3 144.538 30.73C143.158 30.13 142.108 29.23 141.388 28.03C140.668 26.8 140.308 25.255 140.308 23.395ZM158.308 21.64H154.708V10.3C154.858 10.24 155.083 10.18 155.383 10.12C155.713 10.03 156.043 9.985 156.373 9.985C157.033 9.985 157.513 10.12 157.813 10.39C158.143 10.63 158.308 11.05 158.308 11.65V21.64ZM143.908 21.64H140.308V10.3C140.458 10.24 140.683 10.18 140.983 10.12C141.313 10.03 141.658 9.985 142.018 9.985C142.648 9.985 143.113 10.12 143.413 10.39C143.743 10.63 143.908 11.05 143.908 11.65V21.64ZM174.319 9.625C176.179 9.625 177.844 10.03 179.314 10.84C180.814 11.62 181.984 12.82 182.824 14.44C183.694 16.06 184.129 18.115 184.129 20.605C184.129 23.125 183.679 25.195 182.779 26.815C181.909 28.435 180.694 29.635 179.134 30.415C177.574 31.195 175.759 31.585 173.689 31.585C172.219 31.585 170.884 31.405 169.684 31.045C168.514 30.685 167.554 30.295 166.804 29.875C166.174 29.455 165.739 29.065 165.499 28.705C165.259 28.345 165.139 27.85 165.139 27.22V12.235H168.739V27.22C169.189 27.55 169.849 27.865 170.719 28.165C171.589 28.465 172.579 28.615 173.689 28.615C175.729 28.615 177.364 27.97 178.594 26.68C179.854 25.39 180.484 23.365 180.484 20.605C180.484 17.815 179.854 15.79 178.594 14.53C177.334 13.24 175.729 12.595 173.779 12.595C172.579 12.595 171.514 12.835 170.584 13.315C169.654 13.765 168.889 14.29 168.289 14.89L167.614 11.965C168.274 11.455 169.159 10.945 170.269 10.435C171.379 9.895 172.729 9.625 174.319 9.625ZM168.739 12.955H165.139V1.84C165.289 1.78 165.514 1.72 165.814 1.66C166.144 1.57 166.489 1.525 166.849 1.525C167.479 1.525 167.944 1.66 168.244 1.93C168.574 2.17 168.739 2.575 168.739 3.145V12.955Z"/>
</mask>
<path d="M45.005 15.025H48.695V30.64L46.985 31C46.415 31 45.935 30.82 45.545 30.46C45.185 30.07 45.005 29.59 45.005 29.02V15.025ZM46.985 31V27.85H61.61C61.76 27.97 61.88 28.165 61.97 28.435C62.06 28.705 62.105 29.005 62.105 29.335C62.105 29.845 61.97 30.25 61.7 30.55C61.43 30.85 61.07 31 60.62 31H46.985ZM48.695 17.725H45.005V3.73C45.155 3.67 45.38 3.61 45.68 3.55C46.01 3.46 46.355 3.415 46.715 3.415C47.375 3.415 47.87 3.55 48.2 3.82C48.53 4.06 48.695 4.48 48.695 5.08V17.725ZM85.7845 20.605C85.7845 22.825 85.3645 24.76 84.5245 26.41C83.6845 28.06 82.4995 29.335 80.9695 30.235C79.4395 31.135 77.6395 31.585 75.5695 31.585C73.4995 31.585 71.6845 31.135 70.1245 30.235C68.5945 29.335 67.4095 28.06 66.5695 26.41C65.7295 24.76 65.3095 22.825 65.3095 20.605C65.3095 18.355 65.7295 16.42 66.5695 14.8C67.4395 13.15 68.6395 11.875 70.1695 10.975C71.7295 10.075 73.5295 9.625 75.5695 9.625C77.6095 9.625 79.3945 10.075 80.9245 10.975C82.4545 11.875 83.6395 13.15 84.4795 14.8C85.3495 16.42 85.7845 18.355 85.7845 20.605ZM75.5695 12.595C73.5595 12.595 71.9545 13.315 70.7545 14.755C69.5845 16.165 68.9995 18.115 68.9995 20.605C68.9995 23.125 69.5695 25.09 70.7095 26.5C71.8795 27.91 73.4995 28.615 75.5695 28.615C77.6095 28.615 79.1995 27.91 80.3395 26.5C81.5095 25.06 82.0945 23.095 82.0945 20.605C82.0945 18.115 81.5095 16.165 80.3395 14.755C79.1995 13.315 77.6095 12.595 75.5695 12.595ZM99.9925 30.37C98.2525 30.37 96.6475 30.04 95.1775 29.38C93.7075 28.69 92.5225 27.58 91.6225 26.05C90.7225 24.52 90.2725 22.495 90.2725 19.975C90.2725 17.695 90.7075 15.79 91.5775 14.26C92.4775 12.73 93.7075 11.575 95.2675 10.795C96.8275 10.015 98.6125 9.625 100.623 9.625C102.003 9.625 103.263 9.805 104.403 10.165C105.573 10.495 106.548 10.915 107.328 11.425C107.778 11.725 108.138 12.07 108.408 12.46C108.708 12.82 108.858 13.27 108.858 13.81V27.715H105.258V13.855C104.748 13.525 104.103 13.24 103.323 13C102.573 12.73 101.673 12.595 100.623 12.595C98.6125 12.595 96.9925 13.21 95.7625 14.44C94.5325 15.67 93.9175 17.5 93.9175 19.93C93.9175 22.63 94.5325 24.55 95.7625 25.69C97.0225 26.83 98.5675 27.4 100.398 27.4C101.718 27.4 102.783 27.175 103.593 26.725C104.403 26.275 105.048 25.78 105.528 25.24L105.708 28.435C105.258 28.915 104.538 29.365 103.548 29.785C102.588 30.175 101.403 30.37 99.9925 30.37ZM105.258 31.675V26.95H108.858V31.9C108.858 33.88 108.423 35.47 107.553 36.67C106.713 37.87 105.543 38.74 104.043 39.28C102.573 39.82 100.908 40.09 99.0475 40.09C97.5475 40.09 96.2575 39.925 95.1775 39.595C94.0975 39.265 93.3625 38.995 92.9725 38.785C92.0725 38.275 91.6225 37.63 91.6225 36.85C91.6225 36.43 91.7125 36.07 91.8925 35.77C92.1025 35.5 92.3575 35.29 92.6575 35.14C93.2875 35.62 94.1725 36.055 95.3125 36.445C96.4825 36.865 97.7275 37.075 99.0475 37.075C101.058 37.075 102.588 36.64 103.638 35.77C104.718 34.9 105.258 33.535 105.258 31.675ZM133.567 22.045H129.967V17.905C129.967 16.105 129.457 14.77 128.437 13.9C127.447 13.03 126.157 12.595 124.567 12.595C123.397 12.595 122.302 12.82 121.282 13.27C120.292 13.72 119.452 14.26 118.762 14.89L118.087 11.965C118.807 11.455 119.752 10.945 120.922 10.435C122.122 9.895 123.502 9.625 125.062 9.625C127.552 9.625 129.592 10.3 131.182 11.65C132.772 13 133.567 15.055 133.567 17.815V22.045ZM115.612 19.12H119.212V30.91C119.062 30.97 118.837 31.03 118.537 31.09C118.237 31.18 117.907 31.225 117.547 31.225C116.917 31.225 116.437 31.105 116.107 30.865C115.777 30.595 115.612 30.175 115.612 29.605V19.12ZM129.967 19.165L133.567 19.21V30.91C133.417 30.97 133.177 31.03 132.847 31.09C132.547 31.18 132.232 31.225 131.902 31.225C131.242 31.225 130.747 31.105 130.417 30.865C130.117 30.595 129.967 30.175 129.967 29.605V19.165ZM119.212 20.875H115.612V1.84C115.762 1.78 115.987 1.72 116.287 1.66C116.617 1.57 116.962 1.525 117.322 1.525C117.952 1.525 118.417 1.66 118.717 1.93C119.047 2.17 119.212 2.575 119.212 3.145V20.875ZM140.308 23.395V19.3H143.908V23.215C143.908 25.135 144.418 26.515 145.438 27.355C146.458 28.195 147.868 28.615 149.668 28.615C150.868 28.615 151.888 28.495 152.728 28.255C153.568 27.985 154.228 27.715 154.708 27.445V19.3H158.308V27.31C158.308 27.94 158.218 28.45 158.038 28.84C157.888 29.2 157.498 29.56 156.868 29.92C156.208 30.31 155.263 30.685 154.033 31.045C152.803 31.405 151.333 31.585 149.623 31.585C147.643 31.585 145.948 31.3 144.538 30.73C143.158 30.13 142.108 29.23 141.388 28.03C140.668 26.8 140.308 25.255 140.308 23.395ZM158.308 21.64H154.708V10.3C154.858 10.24 155.083 10.18 155.383 10.12C155.713 10.03 156.043 9.985 156.373 9.985C157.033 9.985 157.513 10.12 157.813 10.39C158.143 10.63 158.308 11.05 158.308 11.65V21.64ZM143.908 21.64H140.308V10.3C140.458 10.24 140.683 10.18 140.983 10.12C141.313 10.03 141.658 9.985 142.018 9.985C142.648 9.985 143.113 10.12 143.413 10.39C143.743 10.63 143.908 11.05 143.908 11.65V21.64ZM174.319 9.625C176.179 9.625 177.844 10.03 179.314 10.84C180.814 11.62 181.984 12.82 182.824 14.44C183.694 16.06 184.129 18.115 184.129 20.605C184.129 23.125 183.679 25.195 182.779 26.815C181.909 28.435 180.694 29.635 179.134 30.415C177.574 31.195 175.759 31.585 173.689 31.585C172.219 31.585 170.884 31.405 169.684 31.045C168.514 30.685 167.554 30.295 166.804 29.875C166.174 29.455 165.739 29.065 165.499 28.705C165.259 28.345 165.139 27.85 165.139 27.22V12.235H168.739V27.22C169.189 27.55 169.849 27.865 170.719 28.165C171.589 28.465 172.579 28.615 173.689 28.615C175.729 28.615 177.364 27.97 178.594 26.68C179.854 25.39 180.484 23.365 180.484 20.605C180.484 17.815 179.854 15.79 178.594 14.53C177.334 13.24 175.729 12.595 173.779 12.595C172.579 12.595 171.514 12.835 170.584 13.315C169.654 13.765 168.889 14.29 168.289 14.89L167.614 11.965C168.274 11.455 169.159 10.945 170.269 10.435C171.379 9.895 172.729 9.625 174.319 9.625ZM168.739 12.955H165.139V1.84C165.289 1.78 165.514 1.72 165.814 1.66C166.144 1.57 166.489 1.525 166.849 1.525C167.479 1.525 167.944 1.66 168.244 1.93C168.574 2.17 168.739 2.575 168.739 3.145V12.955Z" fill="white"/>
<path d="M45.005 15.025V14.025H44.005V15.025H45.005ZM48.695 15.025H49.695V14.025H48.695V15.025ZM48.695 30.64L48.901 31.6185L49.695 31.4514V30.64H48.695ZM46.985 31V32H47.0891L47.191 31.9785L46.985 31ZM45.545 30.46L44.8102 31.1383L44.8373 31.1677L44.8667 31.1948L45.545 30.46ZM46.985 31H45.985V32H46.985V31ZM46.985 27.85V26.85H45.985V27.85H46.985ZM61.61 27.85L62.2347 27.0691L61.9608 26.85H61.61V27.85ZM61.97 28.435L62.9187 28.1188L62.9187 28.1188L61.97 28.435ZM61.7 30.55L60.9567 29.881L60.9567 29.881L61.7 30.55ZM48.695 17.725V18.725H49.695V17.725H48.695ZM45.005 17.725H44.005V18.725H45.005V17.725ZM45.005 3.73L44.6336 2.80153L44.005 3.05297V3.73H45.005ZM45.68 3.55L45.8761 4.53058L45.9099 4.52383L45.9431 4.51476L45.68 3.55ZM48.2 3.82L47.5668 4.59396L47.5888 4.61199L47.6118 4.62873L48.2 3.82ZM45.005 16.025H48.695V14.025H45.005V16.025ZM47.695 15.025V30.64H49.695V15.025H47.695ZM48.489 29.6615L46.779 30.0215L47.191 31.9785L48.901 31.6185L48.489 29.6615ZM46.985 30C46.6461 30 46.4142 29.9014 46.2233 29.7252L44.8667 31.1948C45.4558 31.7386 46.1839 32 46.985 32V30ZM46.2798 29.7817C46.1036 29.5908 46.005 29.3589 46.005 29.02H44.005C44.005 29.8211 44.2664 30.5492 44.8102 31.1383L46.2798 29.7817ZM46.005 29.02V15.025H44.005V29.02H46.005ZM47.985 31V27.85H45.985V31H47.985ZM46.985 28.85H61.61V26.85H46.985V28.85ZM60.9853 28.6309C60.9551 28.6067 60.9499 28.5925 60.9608 28.6103C60.9723 28.629 60.995 28.6722 61.0213 28.7512L62.9187 28.1188C62.7953 27.7487 62.5913 27.3544 62.2347 27.0691L60.9853 28.6309ZM61.0213 28.7512C61.0724 28.9045 61.105 29.0957 61.105 29.335H63.105C63.105 28.9143 63.0476 28.5055 62.9187 28.1188L61.0213 28.7512ZM61.105 29.335C61.105 29.6654 61.0213 29.8093 60.9567 29.881L62.4433 31.219C62.9187 30.6907 63.105 30.0246 63.105 29.335H61.105ZM60.9567 29.881C60.8993 29.9448 60.8228 30 60.62 30V32C61.3172 32 61.9607 31.7552 62.4433 31.219L60.9567 29.881ZM60.62 30H46.985V32H60.62V30ZM48.695 16.725H45.005V18.725H48.695V16.725ZM46.005 17.725V3.73H44.005V17.725H46.005ZM45.3764 4.65847C45.4399 4.63308 45.593 4.58719 45.8761 4.53058L45.4839 2.56942C45.167 2.6328 44.8701 2.70692 44.6336 2.80153L45.3764 4.65847ZM45.9431 4.51476C46.183 4.44935 46.4392 4.415 46.715 4.415V2.415C46.2708 2.415 45.837 2.47065 45.4169 2.58524L45.9431 4.51476ZM46.715 4.415C47.2641 4.415 47.4903 4.53138 47.5668 4.59396L48.8332 3.04604C48.2497 2.56861 47.4859 2.415 46.715 2.415V4.415ZM47.6118 4.62873C47.6128 4.62946 47.6138 4.63011 47.6166 4.63375C47.6197 4.63797 47.6291 4.65151 47.6405 4.68065C47.6649 4.74273 47.695 4.86622 47.695 5.08H49.695C49.695 4.31819 49.4826 3.51631 48.7882 3.01126L47.6118 4.62873ZM47.695 5.08V17.725H49.695V5.08H47.695ZM84.5245 26.41L83.6333 25.9563L83.6333 25.9563L84.5245 26.41ZM70.1245 30.235L69.6175 31.097L69.6248 31.1012L70.1245 30.235ZM66.5695 26.41L67.4607 25.9563L67.4607 25.9563L66.5695 26.41ZM66.5695 14.8L65.6849 14.3336L65.6817 14.3397L66.5695 14.8ZM70.1695 10.975L69.6698 10.1088L69.6625 10.1131L70.1695 10.975ZM84.4795 14.8L83.5883 15.2537L83.5933 15.2635L83.5985 15.2731L84.4795 14.8ZM70.7545 14.755L69.9863 14.1148L69.9849 14.1164L70.7545 14.755ZM70.7095 26.5L69.9318 27.1288L69.9399 27.1386L70.7095 26.5ZM80.3395 26.5L79.5634 25.8694L79.5619 25.8713L80.3395 26.5ZM80.3395 14.755L79.5554 15.3757L79.5626 15.3847L79.5699 15.3936L80.3395 14.755ZM84.7845 20.605C84.7845 22.6984 84.3889 24.4722 83.6333 25.9563L85.4157 26.8637C86.3401 25.0478 86.7845 22.9516 86.7845 20.605H84.7845ZM83.6333 25.9563C82.8759 27.4441 81.8208 28.574 80.4625 29.3731L81.4765 31.0969C83.1782 30.096 84.4931 28.6759 85.4157 26.8637L83.6333 25.9563ZM80.4625 29.3731C79.1101 30.1686 77.4912 30.585 75.5695 30.585V32.585C77.7878 32.585 79.7689 32.1014 81.4765 31.0969L80.4625 29.3731ZM75.5695 30.585C73.6483 30.585 72.0108 30.1688 70.6242 29.3688L69.6248 31.1012C71.3582 32.1012 73.3506 32.585 75.5695 32.585V30.585ZM70.6315 29.3731C69.2732 28.574 68.2181 27.4441 67.4607 25.9563L65.6783 26.8637C66.6009 28.6759 67.9158 30.096 69.6175 31.0969L70.6315 29.3731ZM67.4607 25.9563C66.7051 24.4722 66.3095 22.6984 66.3095 20.605H64.3095C64.3095 22.9516 64.7539 25.0478 65.6783 26.8637L67.4607 25.9563ZM66.3095 20.605C66.3095 18.4785 66.7062 16.7087 67.4572 15.2603L65.6817 14.3397C64.7528 16.1313 64.3095 18.2315 64.3095 20.605H66.3095ZM67.4541 15.2664C68.242 13.772 69.315 12.6378 70.6765 11.8369L69.6625 10.1131C67.964 11.1122 66.637 12.528 65.6849 14.3336L67.4541 15.2664ZM70.6692 11.8412C72.058 11.04 73.6812 10.625 75.5695 10.625V8.625C73.3778 8.625 71.401 9.11001 69.6698 10.1088L70.6692 11.8412ZM75.5695 10.625C77.4582 10.625 79.0629 11.0401 80.4175 11.8369L81.4315 10.1131C79.7261 9.10988 77.7608 8.625 75.5695 8.625V10.625ZM80.4175 11.8369C81.7758 12.636 82.8309 13.7659 83.5883 15.2537L85.3707 14.3463C84.4481 12.5341 83.1332 11.114 81.4315 10.1131L80.4175 11.8369ZM83.5985 15.2731C84.3748 16.7186 84.7845 18.4836 84.7845 20.605H86.7845C86.7845 18.2264 86.3242 16.1214 85.3605 14.3269L83.5985 15.2731ZM75.5695 11.595C73.2872 11.595 71.3914 12.4287 69.9863 14.1148L71.5227 15.3952C72.5176 14.2013 73.8318 13.595 75.5695 13.595V11.595ZM69.9849 14.1164C68.6201 15.7612 67.9995 17.9654 67.9995 20.605H69.9995C69.9995 18.2646 70.5488 16.5688 71.5241 15.3936L69.9849 14.1164ZM67.9995 20.605C67.9995 23.2658 68.6009 25.4826 69.9319 27.1287L71.4871 25.8713C70.538 24.6974 69.9995 22.9842 69.9995 20.605H67.9995ZM69.9399 27.1386C71.326 28.809 73.2454 29.615 75.5695 29.615V27.615C73.7536 27.615 72.433 27.011 71.4791 25.8614L69.9399 27.1386ZM75.5695 29.615C77.8687 29.615 79.7619 28.8049 81.1171 27.1287L79.5619 25.8713C78.637 27.0151 77.3502 27.615 75.5695 27.615V29.615ZM81.1156 27.1306C82.4733 25.4596 83.0945 23.2461 83.0945 20.605H81.0945C81.0945 22.9439 80.5457 24.6604 79.5634 25.8694L81.1156 27.1306ZM83.0945 20.605C83.0945 17.9654 82.4738 15.7612 81.1091 14.1164L79.5699 15.3936C80.5451 16.5688 81.0945 18.2646 81.0945 20.605H83.0945ZM81.1235 14.1343C79.7712 12.426 77.8765 11.595 75.5695 11.595V13.595C77.3425 13.595 78.6278 14.204 79.5554 15.3757L81.1235 14.1343ZM95.1775 29.38L94.7526 30.2852L94.7603 30.2888L94.7679 30.2923L95.1775 29.38ZM91.6225 26.05L90.7606 26.557L90.7606 26.557L91.6225 26.05ZM91.5775 14.26L90.7156 13.753L90.7119 13.7593L90.7082 13.7657L91.5775 14.26ZM95.2675 10.795L94.8203 9.90057L94.8203 9.90057L95.2675 10.795ZM104.403 10.165L104.101 11.1186L104.116 11.1232L104.131 11.1274L104.403 10.165ZM107.328 11.425L107.882 10.5929L107.875 10.588L107.328 11.425ZM108.408 12.46L107.585 13.0292L107.611 13.0659L107.639 13.1002L108.408 12.46ZM108.858 27.715V28.715H109.858V27.715H108.858ZM105.258 27.715H104.258V28.715H105.258V27.715ZM105.258 13.855H106.258V13.311L105.801 13.0154L105.258 13.855ZM103.323 13L102.984 13.9409L103.006 13.9489L103.028 13.9558L103.323 13ZM95.7625 14.44L95.0554 13.7329L95.0554 13.7329L95.7625 14.44ZM95.7625 25.69L95.0827 26.4235L95.0916 26.4315L95.7625 25.69ZM103.593 26.725L103.107 25.8508L103.107 25.8508L103.593 26.725ZM105.528 25.24L106.526 25.1838L106.39 22.7649L104.78 24.5756L105.528 25.24ZM105.708 28.435L106.437 29.1189L106.73 28.8064L106.706 28.3788L105.708 28.435ZM103.548 29.785L103.924 30.7115L103.931 30.7086L103.938 30.7056L103.548 29.785ZM105.258 26.95V25.95H104.258V26.95H105.258ZM108.858 26.95H109.858V25.95H108.858V26.95ZM107.553 36.67L106.743 36.083L106.738 36.0897L106.733 36.0965L107.553 36.67ZM104.043 39.28L103.704 38.3391L103.698 38.3413L104.043 39.28ZM95.1775 39.595L94.8853 40.5514L94.8853 40.5514L95.1775 39.595ZM92.9725 38.785L92.4795 39.655L92.4889 39.6603L92.4984 39.6655L92.9725 38.785ZM91.8925 35.77L91.1032 35.1561L91.0661 35.2037L91.035 35.2555L91.8925 35.77ZM92.6575 35.14L93.2636 34.3446L92.7678 33.9668L92.2103 34.2456L92.6575 35.14ZM95.3125 36.445L95.6504 35.5038L95.6433 35.5013L95.6362 35.4988L95.3125 36.445ZM103.638 35.77L103.01 34.9912L103 35L103.638 35.77ZM99.9925 29.37C98.3823 29.37 96.9183 29.0654 95.5871 28.4677L94.7679 30.2923C96.3768 31.0146 98.1228 31.37 99.9925 31.37V29.37ZM95.6024 28.4748C94.3319 27.8784 93.2922 26.9162 92.4845 25.543L90.7606 26.557C91.7529 28.2438 93.0831 29.5016 94.7526 30.2852L95.6024 28.4748ZM92.4845 25.543C91.7051 24.218 91.2725 22.3875 91.2725 19.975H89.2725C89.2725 22.6025 89.74 24.822 90.7606 26.557L92.4845 25.543ZM91.2725 19.975C91.2725 17.8184 91.6842 16.0955 92.4468 14.7543L90.7082 13.7657C89.7309 15.4845 89.2725 17.5716 89.2725 19.975H91.2725ZM92.4395 14.767C93.2434 13.4004 94.3307 12.3814 95.7148 11.6894L94.8203 9.90057C93.0844 10.7686 91.7117 12.0596 90.7156 13.753L92.4395 14.767ZM95.7148 11.6894C97.1161 10.9887 98.7441 10.625 100.623 10.625V8.625C98.481 8.625 96.5389 9.04127 94.8203 9.90057L95.7148 11.6894ZM100.623 10.625C101.916 10.625 103.073 10.7937 104.101 11.1186L104.704 9.21142C103.453 8.81633 102.089 8.625 100.623 8.625V10.625ZM104.131 11.1274C105.231 11.4378 106.107 11.8215 106.78 12.262L107.875 10.588C106.988 10.0085 105.914 9.55222 104.674 9.20255L104.131 11.1274ZM106.773 12.257C107.132 12.4968 107.396 12.7564 107.585 13.0292L109.23 11.8908C108.879 11.3836 108.423 10.9532 107.882 10.5929L106.773 12.257ZM107.639 13.1002C107.767 13.2536 107.858 13.4663 107.858 13.81H109.858C109.858 13.0737 109.648 12.3864 109.176 11.8198L107.639 13.1002ZM107.858 13.81V27.715H109.858V13.81H107.858ZM108.858 26.715H105.258V28.715H108.858V26.715ZM106.258 27.715V13.855H104.258V27.715H106.258ZM105.801 13.0154C105.192 12.6216 104.457 12.3027 103.617 12.0442L103.028 13.9558C103.749 14.1773 104.303 14.4284 104.714 14.6946L105.801 13.0154ZM103.661 12.0591C102.774 11.7398 101.753 11.595 100.623 11.595V13.595C101.592 13.595 102.371 13.7202 102.984 13.9409L103.661 12.0591ZM100.623 11.595C98.392 11.595 96.5024 12.286 95.0554 13.7329L96.4696 15.1471C97.4827 14.134 98.8331 13.595 100.623 13.595V11.595ZM95.0554 13.7329C93.5738 15.2145 92.9175 17.3417 92.9175 19.93H94.9175C94.9175 17.6583 95.4912 16.1255 96.4696 15.1471L95.0554 13.7329ZM92.9175 19.93C92.9175 22.7435 93.5529 25.0055 95.0828 26.4234L96.4423 24.9566C95.5122 24.0945 94.9175 22.5165 94.9175 19.93H92.9175ZM95.0916 26.4315C96.5503 27.7513 98.3404 28.4 100.398 28.4V26.4C98.7947 26.4 97.4947 25.9087 96.4335 24.9485L95.0916 26.4315ZM100.398 28.4C101.82 28.4 103.07 28.1594 104.078 27.5992L103.107 25.8508C102.495 26.1906 101.615 26.4 100.398 26.4V28.4ZM104.078 27.5992C104.96 27.1091 105.702 26.5485 106.275 25.9044L104.78 24.5756C104.393 25.0115 103.845 25.4409 103.107 25.8508L104.078 27.5992ZM104.529 25.2962L104.709 28.4912L106.706 28.3788L106.526 25.1838L104.529 25.2962ZM104.978 27.7511C104.665 28.085 104.09 28.4685 103.157 28.8644L103.938 30.7056C104.985 30.2615 105.85 29.745 106.437 29.1189L104.978 27.7511ZM103.171 28.8585C102.365 29.1859 101.317 29.37 99.9925 29.37V31.37C101.488 31.37 102.81 31.1641 103.924 30.7115L103.171 28.8585ZM106.258 31.675V26.95H104.258V31.675H106.258ZM105.258 27.95H108.858V25.95H105.258V27.95ZM107.858 26.95V31.9H109.858V26.95H107.858ZM107.858 31.9C107.858 33.7392 107.454 35.1028 106.743 36.083L108.362 37.257C109.391 35.8372 109.858 34.0208 109.858 31.9H107.858ZM106.733 36.0965C106.022 37.1123 105.028 37.8626 103.704 38.3391L104.381 40.2209C106.057 39.6175 107.403 38.6277 108.372 37.2435L106.733 36.0965ZM103.698 38.3413C102.357 38.8339 100.811 39.09 99.0475 39.09V41.09C101.004 41.09 102.788 40.8061 104.387 40.2187L103.698 38.3413ZM99.0475 39.09C97.6162 39.09 96.4298 38.932 95.4698 38.6386L94.8853 40.5514C96.0853 40.918 97.4789 41.09 99.0475 41.09V39.09ZM95.4698 38.6386C94.3853 38.3073 93.7388 38.0619 93.4466 37.9045L92.4984 39.6655C92.9863 39.9281 93.8098 40.2227 94.8853 40.5514L95.4698 38.6386ZM93.4656 37.915C92.7619 37.5162 92.6225 37.153 92.6225 36.85H90.6225C90.6225 38.107 91.3832 39.0338 92.4795 39.655L93.4656 37.915ZM92.6225 36.85C92.6225 36.5748 92.6804 36.4005 92.75 36.2845L91.035 35.2555C90.7447 35.7395 90.6225 36.2853 90.6225 36.85H92.6225ZM92.6819 36.3839C92.8021 36.2294 92.941 36.1163 93.1048 36.0344L92.2103 34.2456C91.7741 34.4637 91.403 34.7706 91.1032 35.1561L92.6819 36.3839ZM92.0515 35.9354C92.7992 36.5051 93.7945 36.9826 94.9889 37.3912L95.6362 35.4988C94.5506 35.1274 93.7759 34.7349 93.2636 34.3446L92.0515 35.9354ZM94.9747 37.3862C96.2596 37.8475 97.6195 38.075 99.0475 38.075V36.075C97.8355 36.075 96.7055 35.8825 95.6504 35.5038L94.9747 37.3862ZM99.0475 38.075C101.184 38.075 102.978 37.615 104.276 36.54L103 35C102.197 35.665 100.932 36.075 99.0475 36.075V38.075ZM104.265 36.5488C105.655 35.4291 106.258 33.7273 106.258 31.675H104.258C104.258 33.3427 103.78 34.3709 103.01 34.9912L104.265 36.5488ZM133.567 22.045V23.045H134.567V22.045H133.567ZM129.967 22.045H128.967V23.045H129.967V22.045ZM128.437 13.9L127.777 14.6512L127.783 14.656L127.789 14.6608L128.437 13.9ZM121.282 13.27L120.879 12.355L120.869 12.3596L121.282 13.27ZM118.762 14.89L117.788 15.1149L118.173 16.7824L119.437 15.6285L118.762 14.89ZM118.087 11.965L117.509 11.149L116.962 11.5365L117.113 12.1899L118.087 11.965ZM120.922 10.435L121.322 11.3518L121.333 11.3469L120.922 10.435ZM131.182 11.65L130.535 12.4123L130.535 12.4123L131.182 11.65ZM115.612 19.12V18.12H114.612V19.12H115.612ZM119.212 19.12H120.212V18.12H119.212V19.12ZM119.212 30.91L119.584 31.8385L120.212 31.587V30.91H119.212ZM118.537 31.09L118.341 30.1094L118.295 30.1186L118.25 30.1322L118.537 31.09ZM116.107 30.865L115.474 31.639L115.496 31.657L115.519 31.6737L116.107 30.865ZM129.967 19.165L129.98 18.1651L128.967 18.1524V19.165H129.967ZM133.567 19.21H134.567V18.2224L133.58 18.2101L133.567 19.21ZM133.567 30.91L133.939 31.8385L134.567 31.587V30.91H133.567ZM132.847 31.09L132.669 30.1061L132.614 30.1161L132.56 30.1322L132.847 31.09ZM130.417 30.865L129.748 31.6083L129.787 31.6431L129.829 31.6737L130.417 30.865ZM119.212 20.875V21.875H120.212V20.875H119.212ZM115.612 20.875H114.612V21.875H115.612V20.875ZM115.612 1.84L115.241 0.911526L114.612 1.16297V1.84H115.612ZM116.287 1.66L116.484 2.64058L116.517 2.63383L116.551 2.62476L116.287 1.66ZM118.717 1.93L118.048 2.67329L118.087 2.70812L118.129 2.73873L118.717 1.93ZM133.567 21.045H129.967V23.045H133.567V21.045ZM130.967 22.045V17.905H128.967V22.045H130.967ZM130.967 17.905C130.967 15.9183 130.399 14.2586 129.086 13.1392L127.789 14.6608C128.516 15.2814 128.967 16.2917 128.967 17.905H130.967ZM129.098 13.1488C127.889 12.0869 126.348 11.595 124.567 11.595V13.595C125.967 13.595 127.006 13.9731 127.777 14.6512L129.098 13.1488ZM124.567 11.595C123.265 11.595 122.032 11.8462 120.879 12.3551L121.686 14.1849C122.573 13.7938 123.529 13.595 124.567 13.595V11.595ZM120.869 12.3596C119.799 12.846 118.867 13.4405 118.088 14.1515L119.437 15.6285C120.038 15.0795 120.786 14.594 121.696 14.1804L120.869 12.3596ZM119.737 14.6651L119.062 11.7401L117.113 12.1899L117.788 15.1149L119.737 14.6651ZM118.665 12.781C119.311 12.3238 120.19 11.8453 121.322 11.3517L120.523 9.5183C119.315 10.0447 118.304 10.5862 117.509 11.149L118.665 12.781ZM121.333 11.3469C122.382 10.8747 123.618 10.625 125.062 10.625V8.625C123.387 8.625 121.863 8.91526 120.512 9.52308L121.333 11.3469ZM125.062 10.625C127.363 10.625 129.16 11.2442 130.535 12.4123L131.83 10.8877C130.025 9.35575 127.741 8.625 125.062 8.625V10.625ZM130.535 12.4123C131.834 13.5154 132.567 15.2476 132.567 17.815H134.567C134.567 14.8624 133.71 12.4846 131.83 10.8877L130.535 12.4123ZM132.567 17.815V22.045H134.567V17.815H132.567ZM115.612 20.12H119.212V18.12H115.612V20.12ZM118.212 19.12V30.91H120.212V19.12H118.212ZM118.841 29.9815C118.778 30.0069 118.624 30.0528 118.341 30.1094L118.734 32.0706C119.051 32.0072 119.347 31.9331 119.584 31.8385L118.841 29.9815ZM118.25 30.1322C118.056 30.1904 117.824 30.225 117.547 30.225V32.225C117.991 32.225 118.419 32.1696 118.825 32.0478L118.25 30.1322ZM117.547 30.225C117.021 30.225 116.784 30.1209 116.696 30.0563L115.519 31.6737C116.09 32.0891 116.814 32.225 117.547 32.225V30.225ZM116.741 30.091C116.715 30.0701 116.612 29.9829 116.612 29.605H114.612C114.612 30.3671 114.84 31.1199 115.474 31.639L116.741 30.091ZM116.612 29.605V19.12H114.612V29.605H116.612ZM129.955 20.1649L133.555 20.2099L133.58 18.2101L129.98 18.1651L129.955 20.1649ZM132.567 19.21V30.91H134.567V19.21H132.567ZM133.196 29.9815C133.144 30.0022 132.987 30.0482 132.669 30.1061L133.026 32.0739C133.368 32.0118 133.691 31.9378 133.939 31.8385L133.196 29.9815ZM132.56 30.1322C132.358 30.1927 132.14 30.225 131.902 30.225V32.225C132.325 32.225 132.737 32.1673 133.135 32.0478L132.56 30.1322ZM131.902 30.225C131.334 30.225 131.088 30.1163 131.006 30.0563L129.829 31.6737C130.407 32.0937 131.151 32.225 131.902 32.225V30.225ZM131.086 30.1217C131.072 30.1091 130.967 30.0117 130.967 29.605H128.967C128.967 30.3383 129.162 31.0809 129.748 31.6083L131.086 30.1217ZM130.967 29.605V19.165H128.967V29.605H130.967ZM119.212 19.875H115.612V21.875H119.212V19.875ZM116.612 20.875V1.84H114.612V20.875H116.612ZM115.984 2.76847C116.047 2.74308 116.201 2.69719 116.484 2.64058L116.091 0.679418C115.774 0.742804 115.478 0.816919 115.241 0.911526L115.984 2.76847ZM116.551 2.62476C116.79 2.55935 117.047 2.525 117.322 2.525V0.524999C116.878 0.524999 116.444 0.580653 116.024 0.695236L116.551 2.62476ZM117.322 2.525C117.838 2.525 118.011 2.63982 118.048 2.67329L119.386 1.1867C118.824 0.680173 118.067 0.524999 117.322 0.524999V2.525ZM118.129 2.73873C118.133 2.74129 118.145 2.74813 118.163 2.79105C118.184 2.84343 118.212 2.95201 118.212 3.145H120.212C120.212 2.39118 119.988 1.61728 119.306 1.12126L118.129 2.73873ZM118.212 3.145V20.875H120.212V3.145H118.212ZM140.308 19.3V18.3H139.308V19.3H140.308ZM143.908 19.3H144.908V18.3H143.908V19.3ZM145.438 27.355L146.073 26.5831L146.073 26.5831L145.438 27.355ZM152.728 28.255L153.002 29.2165L153.018 29.212L153.034 29.207L152.728 28.255ZM154.708 27.445L155.198 28.3166L155.708 28.0298V27.445H154.708ZM154.708 19.3V18.3H153.708V19.3H154.708ZM158.308 19.3H159.308V18.3H158.308V19.3ZM158.038 28.84L157.13 28.4209L157.122 28.438L157.115 28.4554L158.038 28.84ZM156.868 29.92L156.371 29.0518L156.365 29.0554L156.359 29.0591L156.868 29.92ZM154.033 31.045L154.314 32.0047L154.033 31.045ZM144.538 30.73L144.139 31.6471L144.151 31.6522L144.163 31.6571L144.538 30.73ZM141.388 28.03L140.525 28.5352L140.53 28.5445L141.388 28.03ZM158.308 21.64V22.64H159.308V21.64H158.308ZM154.708 21.64H153.708V22.64H154.708V21.64ZM154.708 10.3L154.336 9.37152L153.708 9.62297V10.3H154.708ZM155.383 10.12L155.579 11.1006L155.613 11.0938L155.646 11.0848L155.383 10.12ZM157.813 10.39L157.144 11.1333L157.182 11.1681L157.224 11.1987L157.813 10.39ZM143.908 21.64V22.64H144.908V21.64H143.908ZM140.308 21.64H139.308V22.64H140.308V21.64ZM140.308 10.3L139.936 9.37152L139.308 9.62297V10.3H140.308ZM140.983 10.12L141.179 11.1006L141.213 11.0938L141.246 11.0848L140.983 10.12ZM143.413 10.39L142.744 11.1333L142.782 11.1681L142.824 11.1987L143.413 10.39ZM141.308 23.395V19.3H139.308V23.395H141.308ZM140.308 20.3H143.908V18.3H140.308V20.3ZM142.908 19.3V23.215H144.908V19.3H142.908ZM142.908 23.215C142.908 25.294 143.462 27.0231 144.802 28.1269L146.073 26.5831C145.374 26.0069 144.908 24.976 144.908 23.215H142.908ZM144.802 28.1269C146.056 29.1601 147.719 29.615 149.668 29.615V27.615C148.016 27.615 146.859 27.2299 146.073 26.5831L144.802 28.1269ZM149.668 29.615C150.929 29.615 152.047 29.4896 153.002 29.2165L152.453 27.2935C151.729 27.5004 150.807 27.615 149.668 27.615V29.615ZM153.034 29.207C153.904 28.9272 154.635 28.6331 155.198 28.3166L154.217 26.5734C153.82 26.7969 153.231 27.0428 152.422 27.303L153.034 29.207ZM155.708 27.445V19.3H153.708V27.445H155.708ZM154.708 20.3H158.308V18.3H154.708V20.3ZM157.308 19.3V27.31H159.308V19.3H157.308ZM157.308 27.31C157.308 27.8573 157.228 28.2089 157.13 28.4209L158.946 29.2591C159.208 28.6911 159.308 28.0227 159.308 27.31H157.308ZM157.115 28.4554C157.096 28.4987 156.953 28.7194 156.371 29.0518L157.364 30.7882C158.042 30.4006 158.679 29.9013 158.961 29.2246L157.115 28.4554ZM156.359 29.0591C155.802 29.388 154.948 29.7352 153.752 30.0853L154.314 32.0047C155.578 31.6348 156.613 31.232 157.376 30.7809L156.359 29.0591ZM153.752 30.0853C152.638 30.4113 151.267 30.585 149.623 30.585V32.585C151.398 32.585 152.968 32.3987 154.314 32.0047L153.752 30.0853ZM149.623 30.585C147.734 30.585 146.173 30.3126 144.912 29.8029L144.163 31.6571C145.722 32.2874 147.551 32.585 149.623 32.585V30.585ZM144.936 29.8129C143.732 29.2894 142.85 28.5231 142.245 27.5155L140.53 28.5445C141.366 29.9369 142.583 30.9706 144.139 31.6471L144.936 29.8129ZM142.251 27.5248C141.644 26.488 141.308 25.1303 141.308 23.395H139.308C139.308 25.3797 139.692 27.112 140.525 28.5352L142.251 27.5248ZM158.308 20.64H154.708V22.64H158.308V20.64ZM155.708 21.64V10.3H153.708V21.64H155.708ZM155.079 11.2285C155.143 11.2031 155.296 11.1572 155.579 11.1006L155.187 9.13942C154.87 9.20281 154.573 9.27692 154.336 9.37152L155.079 11.2285ZM155.646 11.0848C155.893 11.0173 156.135 10.985 156.373 10.985V8.985C155.951 8.985 155.532 9.04271 155.12 9.15524L155.646 11.0848ZM156.373 10.985C156.933 10.985 157.113 11.106 157.144 11.1333L158.482 9.6467C157.912 9.13403 157.132 8.985 156.373 8.985V10.985ZM157.224 11.1987C157.225 11.1995 157.226 11.2001 157.229 11.2037C157.232 11.208 157.242 11.2215 157.253 11.2507C157.278 11.3127 157.308 11.4362 157.308 11.65H159.308C159.308 10.8882 159.095 10.0863 158.401 9.58126L157.224 11.1987ZM157.308 11.65V21.64H159.308V11.65H157.308ZM143.908 20.64H140.308V22.64H143.908V20.64ZM141.308 21.64V10.3H139.308V21.64H141.308ZM140.679 11.2285C140.743 11.2031 140.896 11.1572 141.179 11.1006L140.787 9.13942C140.47 9.20281 140.173 9.27692 139.936 9.37152L140.679 11.2285ZM141.246 11.0848C141.486 11.0193 141.742 10.985 142.018 10.985V8.985C141.573 8.985 141.14 9.04065 140.72 9.15524L141.246 11.0848ZM142.018 10.985C142.533 10.985 142.706 11.0998 142.744 11.1333L144.082 9.6467C143.519 9.14017 142.762 8.985 142.018 8.985V10.985ZM142.824 11.1987C142.825 11.1995 142.826 11.2001 142.829 11.2037C142.832 11.208 142.842 11.2215 142.853 11.2507C142.878 11.3127 142.908 11.4362 142.908 11.65H144.908C144.908 10.8882 144.695 10.0863 144.001 9.58126L142.824 11.1987ZM142.908 11.65V21.64H144.908V11.65H142.908ZM179.314 10.84L178.831 11.7158L178.842 11.7217L178.852 11.7272L179.314 10.84ZM182.824 14.44L181.936 14.9003L181.939 14.9067L181.943 14.9131L182.824 14.44ZM182.779 26.815L181.905 26.3294L181.901 26.3356L181.898 26.3419L182.779 26.815ZM179.134 30.415L178.687 29.5206L178.687 29.5206L179.134 30.415ZM169.684 31.045L169.39 32.0008L169.396 32.0028L169.684 31.045ZM166.804 29.875L166.249 30.7071L166.281 30.7286L166.315 30.7475L166.804 29.875ZM165.499 28.705L164.667 29.2597L164.667 29.2597L165.499 28.705ZM165.139 12.235V11.235H164.139V12.235H165.139ZM168.739 12.235H169.739V11.235H168.739V12.235ZM168.739 27.22H167.739V27.7267L168.147 28.0264L168.739 27.22ZM170.719 28.165L170.393 29.1104L170.393 29.1104L170.719 28.165ZM178.594 26.68L177.878 25.9812L177.87 25.9899L178.594 26.68ZM178.594 14.53L177.878 15.2288L177.887 15.2371L178.594 14.53ZM170.584 13.315L171.019 14.2152L171.031 14.2095L171.042 14.2036L170.584 13.315ZM168.289 14.89L167.314 15.1149L167.72 16.8729L168.996 15.5971L168.289 14.89ZM167.614 11.965L167.002 11.1737L166.495 11.5655L166.639 12.1899L167.614 11.965ZM170.269 10.435L170.686 11.3437L170.696 11.3391L170.706 11.3342L170.269 10.435ZM168.739 12.955V13.955H169.739V12.955H168.739ZM165.139 12.955H164.139V13.955H165.139V12.955ZM165.139 1.84L164.767 0.911526L164.139 1.16297V1.84H165.139ZM165.814 1.66L166.01 2.64058L166.044 2.63383L166.077 2.62476L165.814 1.66ZM168.244 1.93L167.575 2.67329L167.614 2.70812L167.656 2.73873L168.244 1.93ZM174.319 10.625C176.029 10.625 177.525 10.9958 178.831 11.7158L179.796 9.96416C178.163 9.06416 176.329 8.625 174.319 8.625V10.625ZM178.852 11.7272C180.155 12.4046 181.183 13.4478 181.936 14.9003L183.712 13.9797C182.785 12.1921 181.473 10.8354 179.775 9.95278L178.852 11.7272ZM181.943 14.9131C182.712 16.3453 183.129 18.2242 183.129 20.605H185.129C185.129 18.0058 184.676 15.7747 183.705 13.9669L181.943 14.9131ZM183.129 20.605C183.129 23.0136 182.698 24.9018 181.905 26.3294L183.653 27.3006C184.66 25.4882 185.129 23.2364 185.129 20.605H183.129ZM181.898 26.3419C181.12 27.7905 180.052 28.8381 178.687 29.5206L179.581 31.3094C181.336 30.4319 182.698 29.0795 183.66 27.2881L181.898 26.3419ZM178.687 29.5206C177.289 30.2193 175.632 30.585 173.689 30.585V32.585C175.885 32.585 177.859 32.1707 179.581 31.3094L178.687 29.5206ZM173.689 30.585C172.3 30.585 171.063 30.4149 169.971 30.0872L169.396 32.0028C170.704 32.3951 172.138 32.585 173.689 32.585V30.585ZM169.978 30.0892C168.85 29.742 167.961 29.3768 167.292 29.0025L166.315 30.7475C167.147 31.2132 168.178 31.628 169.39 32.0008L169.978 30.0892ZM167.359 29.0429C166.768 28.6495 166.462 28.3472 166.331 28.1503L164.667 29.2597C165.015 29.7828 165.579 30.2605 166.249 30.7071L167.359 29.0429ZM166.331 28.1503C166.24 28.0136 166.139 27.738 166.139 27.22H164.139C164.139 27.962 164.278 28.6764 164.667 29.2597L166.331 28.1503ZM166.139 27.22V12.235H164.139V27.22H166.139ZM165.139 13.235H168.739V11.235H165.139V13.235ZM167.739 12.235V27.22H169.739V12.235H167.739ZM168.147 28.0264C168.714 28.4417 169.481 28.7959 170.393 29.1104L171.045 27.2196C170.217 26.9341 169.664 26.6583 169.33 26.4136L168.147 28.0264ZM170.393 29.1104C171.387 29.4531 172.49 29.615 173.689 29.615V27.615C172.668 27.615 171.791 27.4769 171.045 27.2196L170.393 29.1104ZM173.689 29.615C175.959 29.615 177.871 28.8873 179.318 27.3701L177.87 25.9899C176.857 27.0527 175.499 27.615 173.689 27.615V29.615ZM179.309 27.3787C180.828 25.8235 181.484 23.4908 181.484 20.605H179.484C179.484 23.2392 178.879 24.9565 177.878 25.9813L179.309 27.3787ZM181.484 20.605C181.484 17.6955 180.831 15.353 179.301 13.8229L177.887 15.2371C178.877 16.227 179.484 17.9345 179.484 20.605H181.484ZM179.309 13.8313C177.845 12.3319 175.974 11.595 173.779 11.595V13.595C175.484 13.595 176.823 14.1481 177.878 15.2287L179.309 13.8313ZM173.779 11.595C172.443 11.595 171.217 11.8631 170.125 12.4264L171.042 14.2036C171.811 13.8069 172.715 13.595 173.779 13.595V11.595ZM170.148 12.4148C169.139 12.9033 168.276 13.4887 167.582 14.1829L168.996 15.5971C169.502 15.0913 170.169 14.6267 171.019 14.2152L170.148 12.4148ZM169.263 14.6651L168.588 11.7401L166.639 12.1899L167.314 15.1149L169.263 14.6651ZM168.225 12.7563C168.805 12.3086 169.617 11.8352 170.686 11.3437L169.851 9.52632C168.701 10.0548 167.743 10.6014 167.002 11.1737L168.225 12.7563ZM170.706 11.3342C171.647 10.8768 172.838 10.625 174.319 10.625V8.625C172.619 8.625 171.111 8.9132 169.831 9.53576L170.706 11.3342ZM168.739 11.955H165.139V13.955H168.739V11.955ZM166.139 12.955V1.84H164.139V12.955H166.139ZM165.51 2.76847C165.574 2.74308 165.727 2.69719 166.01 2.64058L165.618 0.679418C165.301 0.742804 165.004 0.816919 164.767 0.911526L165.51 2.76847ZM166.077 2.62476C166.317 2.55935 166.573 2.525 166.849 2.525V0.524999C166.405 0.524999 165.971 0.580653 165.551 0.695236L166.077 2.62476ZM166.849 2.525C167.364 2.525 167.538 2.63982 167.575 2.67329L168.913 1.1867C168.35 0.680173 167.593 0.524999 166.849 0.524999V2.525ZM167.656 2.73873C167.659 2.74129 167.672 2.74813 167.689 2.79105C167.71 2.84343 167.739 2.95201 167.739 3.145H169.739C169.739 2.39118 169.514 1.61728 168.832 1.12126L167.656 2.73873ZM167.739 3.145V12.955H169.739V3.145H167.739Z" fill="#171717" mask="url(#path-1-outside-1_0_1)"/>
<path d="M32 23.0012V10.9988C31.9994 10.4726 31.8451 9.95577 31.5526 9.50021C31.26 9.04464 30.8396 8.66633 30.3333 8.40324L18.6667 2.40201C18.1599 2.13865 17.5851 2 17 2C16.4149 2 15.8401 2.13865 15.3333 2.40201L3.66667 8.40324C3.16044 8.66633 2.73997 9.04464 2.44744 9.50021C2.1549 9.95577 2.0006 10.4726 2 10.9988V23.0012C2.0006 23.5274 2.1549 24.0442 2.44744 24.4998C2.73997 24.9554 3.16044 25.3337 3.66667 25.5968L15.3333 31.598C15.8401 31.8614 16.4149 32 17 32C17.5851 32 18.1599 31.8614 18.6667 31.598L30.3333 25.5968C30.8396 25.3337 31.26 24.9554 31.5526 24.4998C31.8451 24.0442 31.9994 23.5274 32 23.0012Z" stroke="white" stroke-width="4" stroke-linecap="round" stroke-linejoin="round"/>
</svg>
